<?xml version="1.0" ?><svg id="Icons" style="enable-background:new 0 0 32 32;" version="1.1" viewBox="0 0 32 32" xml:space="preserve" xmlns="http://www.w3.org/2000/svg" xmlns:xlink="http://www.w3.org/1999/xlink"><style type="text/css">
	.st0{fill:none;stroke:#000000;stroke-width:2;stroke-linecap:round;stroke-linejoin:round;stroke-miterlimit:10;}
</style><g><path d="M16,23.2C16,23.2,16,23.2,16,23.2c-1.3,0-2.6-0.6-3.4-1.5c-0.1-0.1-0.2-0.2-0.2-0.3C10.9,16.9,10,7.7,10,6c0-3,2.4-5,6-5   s6,2,6,5c0,1.7-0.9,10.9-2.4,15.3c0,0.1-0.1,0.2-0.2,0.3C18.6,22.6,17.3,23.2,16,23.2z M18.7,21L18.7,21L18.7,21z"/></g><path d="M28.3,24.8l-3-3.7C24.8,20.4,24,20,23,20h-1c-0.2,0.7-0.4,1.4-0.6,2c-0.1,0.4-0.3,0.7-0.6,1c-1.2,1.4-3,2.2-4.9,2.2  s-3.7-0.8-4.9-2.2c-0.3-0.3-0.5-0.7-0.6-1c-0.2-0.6-0.4-1.2-0.6-2H9c-0.9,0-1.8,0.4-2.3,1.1l-3,3.7C3.2,25.4,3,26,3,26.7V28  c0,1.7,1.3,3,3,3h20c1.7,0,3-1.3,3-3v-1.3C29,26,28.8,25.4,28.3,24.8z M10,28H8c-0.6,0-1-0.4-1-1s0.4-1,1-1h2c0.6,0,1,0.4,1,1  S10.6,28,10,28z M21.7,27.7c-0.1,0-0.1,0.1-0.2,0.1c0,0-0.1,0.1-0.2,0.1c-0.1,0-0.1,0-0.2,0.1c-0.1,0-0.1,0-0.2,0  c-0.3,0-0.5-0.1-0.7-0.3C20.1,27.5,20,27.3,20,27c0-0.3,0.1-0.5,0.3-0.7c0.1-0.1,0.2-0.2,0.3-0.2c0.4-0.1,0.8-0.1,1.1,0.2  c0.2,0.2,0.3,0.4,0.3,0.7C22,27.3,21.9,27.5,21.7,27.7z M24.7,27.7C24.5,27.9,24.3,28,24,28c-0.3,0-0.5-0.1-0.7-0.3  C23.1,27.5,23,27.3,23,27c0-0.3,0.1-0.5,0.3-0.7c0.1-0.1,0.2-0.2,0.3-0.2c0.4-0.2,0.8-0.1,1.1,0.2c0.2,0.2,0.3,0.4,0.3,0.7  C25,27.3,24.9,27.5,24.7,27.7z"/></svg>