<?xml version="1.0" ?><svg id="Layer_1" style="enable-background:new 0 0 62 62;" version="1.1" viewBox="0 0 62 62" xml:space="preserve" xmlns="http://www.w3.org/2000/svg" xmlns:xlink="http://www.w3.org/1999/xlink"><style type="text/css">
	.st0{fill:#5FD2FF;}
	.st1{fill:#FFFFFF;}
	.st2{fill:#0082ED;}
	.st3{fill:#2BA8FC;}
	.st4{fill:#CECECE;}
	.st5{fill:#F92B75;}
	.st6{fill:#3BB0FF;}
	.st7{fill:#CE004F;}
	.st8{fill:none;stroke:#ED0C68;stroke-width:5;stroke-linecap:round;stroke-linejoin:round;stroke-miterlimit:10;}
	.st9{fill:#ED0C68;}
	.st10{fill:#78DED4;}
	.st11{fill:#1E5363;}
	.st12{fill:#54C8E8;}
	.st13{fill:#F4F4F4;}
	.st14{fill:#0C82EB;}
	.st15{fill:#00B2E3;}
	.st16{fill:#68A2B9;}
	.st17{fill:#A2C5D3;}
	.st18{fill:#76777A;}
	.st19{fill:#A7A8A9;}
	.st20{fill:#D6D6D6;}
	.st21{fill:none;stroke:#F92B75;stroke-width:5;stroke-linecap:round;stroke-linejoin:round;stroke-miterlimit:10;}
	.st22{fill:#FD4A5C;}
	.st23{fill:#FF8E9F;}
	.st24{fill:none;stroke:#F458A3;stroke-width:5;stroke-linecap:round;stroke-linejoin:round;stroke-miterlimit:10;}
	.st25{fill:#FFB259;}
	.st26{fill:#F32735;}
	.st27{fill:#FF9E18;}
	.st28{fill:#FFC27A;}
	.st29{fill:#FFC56D;}
	.st30{fill:none;stroke:#FD4A5C;stroke-width:5;stroke-linecap:round;stroke-linejoin:round;stroke-miterlimit:10;}
	.st31{fill:#0069A7;}
	.st32{fill:#D8D8D8;}
	.st33{fill:#8CB7C9;}
	.st34{fill:#65BAAF;}
	.st35{fill:#00AF9A;}
	.st36{fill:#00C4B3;}
	.st37{fill:#19D3C5;}
	.st38{fill:none;stroke:#54C8E8;stroke-width:5;stroke-linecap:round;stroke-linejoin:round;stroke-miterlimit:10;}
	.st39{fill:#8331A7;}
	.st40{fill:#009383;}
	.st41{fill:#98989A;}
	.st42{fill:#636569;}
	.st43{fill:#898A8D;}
	.st44{fill:#FFB548;}
	.st45{fill:none;stroke:#FFB548;stroke-width:5;stroke-linecap:round;stroke-linejoin:round;stroke-miterlimit:10;}
	.st46{fill:#ED40A9;}
	.st47{fill:#CB007B;}
	.st48{fill:#E50695;}
	.st49{fill:#D7282F;}
	.st50{fill:#E5E5E5;}
	.st51{fill:#FFA4B4;}
	.st52{fill:#F6A7D7;}
	.st53{fill:#F478C4;}
	.st54{fill:#E0C7E6;}
	.st55{fill:#B980D0;}
	.st56{fill:#D9B7E2;}
	.st57{fill:#BADF93;}
	.st58{fill:#4C9C2E;}
	.st59{fill:#3DAE2B;}
	.st60{fill:#AADA91;}
	.st61{fill:#6ABF4B;}
	.st62{fill:#EFB8A9;}
	.st63{fill:#FECB8B;}
	.st64{fill:#BDE8EF;}
	.st65{fill:#CCA1DD;}
	.st66{fill:#B2B2B2;}
	.st67{fill:none;stroke:#FF8300;stroke-width:5;stroke-linecap:round;stroke-linejoin:round;stroke-miterlimit:10;}
	.st68{fill:none;stroke:#FF9E18;stroke-width:5;stroke-linecap:round;stroke-linejoin:round;stroke-miterlimit:10;}
	.st69{fill:#96DAEA;}
	.st70{fill:#FF8300;}
	.st71{fill:none;stroke:#6ABF4B;stroke-width:5;stroke-linecap:round;stroke-linejoin:round;stroke-miterlimit:10;}
	.st72{fill:none;}
	.st73{fill:#444444;}
	.st74{fill:#FDCF85;}
</style><g><circle class="st69" cx="31" cy="31" r="28.5"/><path class="st69" d="M31,2.5c15.74,0,28.5,12.76,28.5,28.5S46.74,59.5,31,59.5S2.5,46.74,2.5,31S15.26,2.5,31,2.5"/><path class="st36" d="M31,62c-6.57,0-13.22-10.65-13.22-31S24.43,0,31,0s13.22,10.65,13.22,31S37.57,62,31,62z M31,5   c-3.35,0-8.22,10.13-8.22,26S27.65,57,31,57s8.22-10.13,8.22-26S34.35,5,31,5z"/><g><path class="st36" d="M57.73,23.6H4.27c-1.38,0-2.5-1.12-2.5-2.5s1.12-2.5,2.5-2.5h53.46c1.38,0,2.5,1.12,2.5,2.5    S59.11,23.6,57.73,23.6z"/><path class="st36" d="M57.73,43.6H4.27c-1.38,0-2.5-1.12-2.5-2.5s1.12-2.5,2.5-2.5h53.46c1.38,0,2.5,1.12,2.5,2.5    S59.11,43.6,57.73,43.6z"/></g><g><path class="st37" d="M20.28,23.6H4.27c-1.38,0-2.5-1.12-2.5-2.5s1.12-2.5,2.5-2.5h16.01c1.38,0,2.5,1.12,2.5,2.5    S21.66,23.6,20.28,23.6z"/><path class="st37" d="M20.28,43.6H4.27c-1.38,0-2.5-1.12-2.5-2.5s1.12-2.5,2.5-2.5h16.01c1.38,0,2.5,1.12,2.5,2.5    S21.66,43.6,20.28,43.6z"/></g><path class="st37" d="M31,62c-6.57,0-13.22-10.65-13.22-31S24.43,0,31,0c1.38,0,2.5,1.12,2.5,2.5S32.38,5,31,5   c-3.35,0-8.22,10.13-8.22,26S27.65,57,31,57c1.38,0,2.5,1.12,2.5,2.5S32.38,62,31,62z"/><path class="st14" d="M31,62C13.91,62,0,48.09,0,31S13.91,0,31,0s31,13.91,31,31S48.09,62,31,62z M31,5C16.66,5,5,16.66,5,31   s11.66,26,26,26s26-11.66,26-26S45.34,5,31,5z"/><path class="st15" d="M2.5,33.5C1.12,33.5,0,32.38,0,31C0,13.91,13.91,0,31,0c1.38,0,2.5,1.12,2.5,2.5S32.38,5,31,5   C16.66,5,5,16.66,5,31C5,32.38,3.88,33.5,2.5,33.5z"/></g></svg>